<svg xmlns="http://www.w3.org/2000/svg" width="32" height="32" viewBox="0 0 48 48"><g fill="none"><path fill="#847a71" d="M44 24a2 2 0 10-4 0zM24 8a2 2 0 100-4zm15 32H9v4h30zM8 39V9H4v30zm32-15v15h4V24zM9 8h15V4H9zm0 32a1 1 0 01-1-1H4a5 5 0 005 5zm30 4a5 5 0 005-5h-4a1 1 0 01-1 1zM8 9a1 1 0 011-1V4a5 5 0 00-5 5z"/><path stroke="#847a71" stroke-linecap="round" stroke-linejoin="round" stroke-width="4" d="M6 35l10.693-9.802a2 2 0 012.653-.044L32 36m-4-5l4.773-4.773a2 2 0 012.615-.186L42 31M30 12h12m-6-6v12"/></g></svg>