<svg width="18" height="18" fill="none" xmlns="http://www.w3.org/2000/svg"><path fill-rule="evenodd" clip-rule="evenodd" d="M2.06 8.32h3.23A12.39 12.39 0 017.455 2.2 6.978 6.978 0 002.06 8.32zM9 2.396A11.03 11.03 0 006.656 8.32h4.69A11.03 11.03 0 009 2.396zm2.345 7.285A11.03 11.03 0 019 15.604a11.029 11.029 0 01-2.344-5.923h4.69zm-6.054 0H2.06a6.978 6.978 0 005.393 6.12 12.39 12.39 0 01-2.163-6.12zm5.256 6.12a12.39 12.39 0 002.163-6.12h3.23a6.978 6.978 0 01-5.393 6.12zm5.393-7.48h-3.23A12.39 12.39 0 0010.547 2.2a6.978 6.978 0 015.393 6.12zM.667 9a8.333 8.333 0 1116.667 0A8.333 8.333 0 01.667 9z" fill="#847A71"/></svg>