<svg width="21" height="20" fill="none" xmlns="http://www.w3.org/2000/svg"><path fill-rule="evenodd" clip-rule="evenodd" d="M3.093 1.633a1.02 1.02 0 00-1.02 1.02v8.265a1.02 1.02 0 001.02 1.02h.919a.816.816 0 010 1.633h-.919A2.653 2.653 0 01.44 10.918V2.653A2.653 2.653 0 013.093 0h8.266a2.653 2.653 0 012.653 2.653v.918a.816.816 0 01-1.633 0v-.918a1.02 1.02 0 00-1.02-1.02H3.093zM9.522 8.06a1.02 1.02 0 00-1.02 1.02v8.266c0 .563.457 1.02 1.02 1.02h8.265a1.02 1.02 0 001.02-1.02V9.082a1.02 1.02 0 00-1.02-1.02H9.522zm-2.653 1.02A2.653 2.653 0 019.522 6.43h8.265a2.653 2.653 0 012.653 2.653v8.265A2.653 2.653 0 0117.787 20H9.522a2.653 2.653 0 01-2.653-2.653V9.082z" fill="#8287AB"/></svg>