<svg width="18" height="18" fill="none" xmlns="http://www.w3.org/2000/svg"><path d="M15.526 1.46c-.269 0-.527.107-.717.297L7.144 9.423l-.478 1.911 1.91-.477 7.667-7.666a1.013 1.013 0 00-.717-1.73zm-1.75-.735a2.474 2.474 0 013.5 3.498l-7.81 7.81a.731.731 0 01-.339.191l-3.288.822a.73.73 0 01-.885-.885l.822-3.288a.73.73 0 01.192-.34L13.777.726zM.697 2.439a2.374 2.374 0 011.678-.695h5.754a.73.73 0 110 1.46H2.374a.914.914 0 00-.914.914v11.508a.914.914 0 00.914.914h11.508a.914.914 0 00.914-.914V9.872a.73.73 0 111.46 0v5.754A2.374 2.374 0 0113.882 18H2.374A2.374 2.374 0 010 15.626V4.118c0-.63.25-1.234.695-1.679z" fill="#847A71"/></svg>