<svg width="19" height="19" fill="none" xmlns="http://www.w3.org/2000/svg"><path fill-rule="evenodd" clip-rule="evenodd" d="M15.258 1.727c-.297 0-.59.124-.814.359L2.61 14.527l-.573 2.408 2.208-.58L16.071 3.922c.111-.117.201-.258.264-.416a1.372 1.372 0 000-1.005 1.286 1.286 0 00-.264-.415 1.169 1.169 0 00-.38-.268 1.086 1.086 0 00-.433-.09zM13.192.895A2.85 2.85 0 0115.258 0c.387 0 .768.08 1.123.235.355.154.675.38.942.66.267.281.476.612.619.973a3.1 3.1 0 010 2.271 3.014 3.014 0 01-.62.973L5.329 17.722a.864.864 0 01-.406.24l-3.839 1.01a.864.864 0 01-1.06-1.035l.96-4.036a.863.863 0 01.214-.395L13.192.896zM8.636 18.136c0-.477.387-.863.864-.863h8.636a.864.864 0 010 1.727H9.5a.864.864 0 01-.864-.864z" fill="#847A71"/></svg>