<svg width="18" height="14" fill="none" xmlns="http://www.w3.org/2000/svg"><path fill-rule="evenodd" clip-rule="evenodd" d="M2.096 2.197L9 6.92l6.905-4.723a.852.852 0 00-.782-.496H2.878a.852.852 0 00-.782.496zm13.877 1.608l-6.59 4.508a.678.678 0 01-.765 0l-6.59-4.508v7.682c0 .427.366.812.85.812h12.245c.484 0 .85-.385.85-.812V3.805zM.667 2.512c0-1.218 1.012-2.179 2.21-2.179h12.246c1.2 0 2.21.961 2.21 2.18v8.974c0 1.218-1.01 2.18-2.21 2.18H2.878c-1.2 0-2.211-.962-2.211-2.18V2.512z" fill="#847A71"/></svg>