<svg width="16" height="20" fill="none" xmlns="http://www.w3.org/2000/svg"><path fill-rule="evenodd" clip-rule="evenodd" d="M8 1.513a6.42 6.42 0 00-4.628 1.993A6.947 6.947 0 001.455 8.32c0 2.638 1.647 5.184 3.437 7.148A24.225 24.225 0 008 18.317a24.23 24.23 0 003.108-2.85c1.79-1.964 3.438-4.51 3.438-7.148 0-1.805-.69-3.536-1.918-4.813A6.42 6.42 0 008 1.513zm0 17.73l-.404.63-.002-.002-.005-.003-.019-.013a8.16 8.16 0 01-.308-.226 25.7 25.7 0 01-3.426-3.121C1.989 14.48 0 11.565 0 8.319c0-2.206.843-4.322 2.343-5.882C3.843.877 5.878 0 8 0s4.157.876 5.657 2.437C15.157 3.997 16 6.113 16 8.319c0 3.246-1.989 6.161-3.836 8.189a25.7 25.7 0 01-3.426 3.12 14.94 14.94 0 01-.308.227l-.019.013-.005.003-.002.001L8 19.244zm0 0l.403.63a.705.705 0 01-.807 0l.404-.63zM8 6.555c-.937 0-1.697.79-1.697 1.765 0 .975.76 1.765 1.697 1.765s1.697-.79 1.697-1.765c0-.975-.76-1.765-1.697-1.765zM4.85 8.32c0-1.81 1.41-3.277 3.151-3.277 1.74 0 3.152 1.467 3.152 3.277S9.74 11.596 8 11.596c-1.74 0-3.151-1.467-3.151-3.277z" fill="#847A71"/></svg>