<svg width="16" height="17" fill="none" xmlns="http://www.w3.org/2000/svg"><path fill-rule="evenodd" clip-rule="evenodd" d="M7.581.805a.705.705 0 01.838 0l6.818 5.084a.644.644 0 01.263.516v7.99c0 .558-.232 1.093-.643 1.488-.412.395-.971.617-1.554.617H2.697a2.246 2.246 0 01-1.554-.617A2.063 2.063 0 01.5 14.394v-7.99c0-.201.097-.391.263-.515L7.581.805zM6.41 15.193h3.182V9.237H6.409v5.956zm4.546 0v-6.61c0-.36-.306-.653-.682-.653H5.727a.668.668 0 00-.682.654v6.609H2.697a.852.852 0 01-.59-.234.783.783 0 01-.243-.565v-7.67L8 2.15l6.136 4.575v7.67a.782.782 0 01-.244.565.852.852 0 01-.589.234h-2.348z" fill="#847A71"/></svg>