<svg width="18" height="20" fill="none" xmlns="http://www.w3.org/2000/svg"><path fill-rule="evenodd" clip-rule="evenodd" d="M4.565 1.854A6.243 6.243 0 019 0a6.24 6.24 0 014.435 1.854 6.362 6.362 0 011.838 4.477c0 3.09.655 5.016 1.263 6.143.306.565.604.938.814 1.16a2.844 2.844 0 00.29.271l.004.003a.83.83 0 01.32.921.82.82 0 01-.782.586H.818a.82.82 0 01-.783-.586.83.83 0 01.327-.925l-.001.001-.003.002-.003.002.006-.004a2.846 2.846 0 00.29-.27 5.58 5.58 0 00.813-1.161c.608-1.127 1.263-3.053 1.263-6.143a6.36 6.36 0 011.838-4.477zm10.827 11.91H2.608c.097-.153.195-.32.292-.5.755-1.396 1.464-3.6 1.464-6.933 0-1.24.488-2.431 1.358-3.309A4.615 4.615 0 019 1.652c1.23 0 2.409.493 3.278 1.37a4.702 4.702 0 011.358 3.31c0 3.333.71 5.536 1.464 6.933.097.18.195.346.292.499zm-8.375 3.782a.814.814 0 011.118.3 1.004 1.004 0 00.865.502.993.993 0 00.865-.502.814.814 0 011.118-.3.83.83 0 01.297 1.128 2.65 2.65 0 01-.964.97 2.618 2.618 0 01-3.596-.97.83.83 0 01.297-1.128z" fill="#fff"/></svg>