<svg width="18" height="18" fill="none" xmlns="http://www.w3.org/2000/svg"><path d="M16.806 11.338a2.203 2.203 0 00-1.386-.765 9.578 9.578 0 01-2.015-.502 2.281 2.281 0 00-1.242-.093c-.416.092-.799.298-1.105.595l-.595.604a11.61 11.61 0 01-3.657-3.648l.604-.604c.298-.302.505-.682.595-1.097a2.287 2.287 0 00-.093-1.241 8.534 8.534 0 01-.502-2.015 2.214 2.214 0 00-.757-1.37A2.182 2.182 0 005.216.668h-2.33a2.238 2.238 0 00-1.641.723 2.24 2.24 0 00-.57 1.7 15.876 15.876 0 002.467 6.956 15.686 15.686 0 004.82 4.813 16.052 16.052 0 006.956 2.466 2.33 2.33 0 00.91-.11c.29-.101.557-.26.782-.468a2.188 2.188 0 00.723-1.633v-2.296a2.224 2.224 0 00-.527-1.48zm-.833 1.472v2.304a.83.83 0 01-.077.348.723.723 0 01-.204.281.924.924 0 01-.297.187c-.113.034-.231.049-.35.043a14.682 14.682 0 01-6.35-2.262A14.324 14.324 0 014.29 9.306a14.47 14.47 0 01-2.262-6.343.96.96 0 01.042-.349.908.908 0 01.179-.306.75.75 0 01.289-.204.832.832 0 01.348-.076h2.322a.891.891 0 01.561.204c.16.132.263.32.29.527.101.788.295 1.561.577 2.304a.856.856 0 01-.195.901l-.97.978a.67.67 0 00-.11.817 12.927 12.927 0 004.872 4.864.684.684 0 00.816-.111l.97-.97a.837.837 0 01.425-.229.855.855 0 01.485.034c.743.277 1.517.469 2.304.57a.87.87 0 01.536.297c.138.16.21.367.204.579v.017z" fill="#847A71"/></svg>