<svg width="18" height="18" fill="none" xmlns="http://www.w3.org/2000/svg"><path fill-rule="evenodd" clip-rule="evenodd" d="M9 17.334A8.333 8.333 0 109 .667a8.333 8.333 0 000 16.667zm-4.377-9.69a.325.325 0 00.135.311l2.109 1.532a.333.333 0 01.121.373l-.806 2.48a.325.325 0 00.07.327l.11.08c.1.046.225.044.333-.035l2.11-1.532a.333.333 0 01.391 0l2.11 1.532c.108.079.232.081.333.034.037-.026.073-.052.109-.08a.325.325 0 00.07-.327l-.805-2.479a.333.333 0 01.12-.373l2.11-1.532c.11-.08.15-.2.135-.311a4.732 4.732 0 00-.039-.119.325.325 0 00-.292-.173H10.44a.333.333 0 01-.317-.23l-.806-2.48a.325.325 0 00-.247-.223 4.831 4.831 0 00-.139 0 .325.325 0 00-.248.224l-.805 2.479a.333.333 0 01-.317.23H4.954a.325.325 0 00-.293.173l-.038.119z" fill="#BEC2DA"/></svg>